<svg id="Layer_1" data-name="Layer 1" xmlns="http://www.w3.org/2000/svg" viewBox="0 0 232.34 35.34"><defs><style>.cls-1{fill:#fff;}</style></defs><title>adminlog</title><path class="cls-1" d="M464.78,270.57h6.52v34.48h-6.52Z" transform="translate(-464.78 -270.57)"/><path class="cls-1" d="M478.77,270.57h17.11V277H485.29v6.26h10.59v6.3H485.29v15.52h-6.52Z" transform="translate(-464.78 -270.57)"/><path class="cls-1" d="M501.48,270.57h6.59v22.29a11.56,11.56,0,0,0,.5,4.07,4.06,4.06,0,0,0,1.66,1.91,5.25,5.25,0,0,0,2.8.71,5.46,5.46,0,0,0,3-.8,4.19,4.19,0,0,0,1.73-2,15,15,0,0,0,.48-4.7V270.57h6.59v20.55a29.81,29.81,0,0,1-.59,7.22,10.23,10.23,0,0,1-2.24,3.89,10.39,10.39,0,0,1-3.81,2.78,12.92,12.92,0,0,1-5,.9,12.13,12.13,0,0,1-6.53-1.72,10,10,0,0,1-4-4.31q-1.2-2.59-1.2-8.75Z" transform="translate(-464.78 -270.57)"/><path class="cls-1" d="M532.47,270.57h6.29l14.75,22.69V270.57h6.56v34.48h-6.31L539,282.43v22.62h-6.56Z" transform="translate(-464.78 -270.57)"/><path class="cls-1" d="M568,270.57h7.77q7.52,0,11.17,1.86a14.55,14.55,0,0,1,6,6.06,21.24,21.24,0,0,1,1,17.12,15.19,15.19,0,0,1-3.65,5.54,12.9,12.9,0,0,1-5,3q-2.72.84-9.41.84H568Zm6.52,6.33v21.75h3q4.5,0,6.53-1a7.82,7.82,0,0,0,3.32-3.47,12.74,12.74,0,0,0,1.29-6q0-5.49-3.07-8.52-2.77-2.72-8.88-2.72Z" transform="translate(-464.78 -270.57)"/><path class="cls-1" d="M601.65,270.57h17.11V277H608.17v6.26h10.59v6.3H608.17v15.52h-6.52Z" transform="translate(-464.78 -270.57)"/><path class="cls-1" d="M624.13,270.57h6.52v34.48h-6.52Z" transform="translate(-464.78 -270.57)"/><path class="cls-1" d="M638,270.57h6.56v28.22h9.56v6.26H638Z" transform="translate(-464.78 -270.57)"/><path class="cls-1" d="M662.49,270.57h6.39l8,24,8.06-24h6.39l5.78,34.48h-6.35l-3.7-21.77-7.32,21.77H674l-7.26-21.77-3.79,21.77h-6.4Z" transform="translate(-464.78 -270.57)"/></svg>